/* XPM */
static char *result[] = {
/* columns rows colors chars-per-pixel */
"17 17 26 1 ",
"  c #323821",
". c #353821",
"X c #343A22",
"o c #353B22",
"O c #363C25",
"+ c #C13F31",
"@ c #C43F31",
"# c #869E42",
"$ c #88A043",
"% c #89A143",
"& c #8AA045",
"* c #8BA247",
"= c #9CB94C",
"- c #9EBB4D",
"; c #9FBC4D",
": c #A0BC4F",
"> c #A1BD4F",
", c #D6B68D",
"< c #D8B78F",
"1 c #D9B890",
"2 c #FDD6A6",
"3 c #FFD7A8",
"4 c gray98",
"5 c #FCFDFB",
"6 c white",
"7 c None",
/* pixels */
"777OOOOOOOOOOOO77",
"77O ####=======O7",
"7O+ $$$$%;;%%%; 7",
"7 @ $5X5$;o---o 7",
"7 . $6 6$;=;;;= 7",
"77 +X646$;;;;;; 7",
"77 @ ***$;;;;;; 7",
"77 . $$$$%;oooo 7",
"7777 X$$--;= 7777",
"77777 $,2222 7777",
"777OO $<3333 7777",
"777 ==$<3333 7777",
"777 o%$&>11> 7777",
"7777 X$-;::; 7777",
"77777 $;oo%; 7777",
"77777 $o7 $o77777",
"77777 X77 X777777"
};
