/* XPM */
static char *background1741780365[] = {
/* columns rows colors chars-per-pixel */
"16 17 9 1 ",
"  c #362130",
". c #372130",
"X c #362031",
"o c #3C243A",
"O c #3C253A",
"+ c #3D253A",
"@ c #3C243B",
"# c #3D243B",
"$ c #3C253B",
/* pixels */
"###O##OO.......#",
"##O#O##OO#######",
"##OO##O#####O###",
"O@OOO###OOOOO#OO",
"OO#######OOO##O#",
"@@#@###O##O##O#O",
"O@@@##OOO#OO##OO",
"@@@@###OOOOOO##O",
"O#O##O##O#####OO",
"O####O#OOOO#####",
"           # O#O",
"$OO#O#O###OO## O",
"$@@@##O#####OO O",
"$$@$O#O#####OO O",
"+#@@O### #@#@@ O",
"+#@@O### #@@@@ $",
"+@@@+@+@.......+"
};
