/* XPM */
static char *pared1741780450[] = {
/* columns rows colors chars-per-pixel */
"16 17 40 1 ",
"  c #221C18",
". c #231C18",
"X c #221D18",
"o c #221C19",
"O c #231C19",
"+ c #221D19",
"@ c #231D19",
"# c #242A32",
"$ c #252A32",
"% c #242B32",
"& c #252B32",
"* c #242A33",
"= c #252A33",
"- c #242B33",
"; c #252B33",
": c #3C4856",
"> c #3D4856",
", c #3C4956",
"< c #3D4956",
"1 c #3C4857",
"2 c #3D4857",
"3 c #3C4957",
"4 c #3D4957",
"5 c #626A84",
"6 c #636A84",
"7 c #626B84",
"8 c #636B84",
"9 c #626A85",
"0 c #636A85",
"q c #626B85",
"w c #636B85",
"e c #AEB4CE",
"r c #AFB4CE",
"t c #AEB5CE",
"y c #AFB5CE",
"u c #AEB4CF",
"i c #AFB4CF",
"p c #AEB5CF",
"a c #AFB5CF",
"s c None",
/* pixels */
"ssoXX..oooooooss",
"so$$$$##-$$$$;Os",
"X$pprpp#$$pypp$o",
"$p85yp54#p8puw4%",
"$pu8uuq4$u8ur54$",
"%p8588q1-u88854#",
"%yw41881$$u8844#",
"$pw415881-$11,%#",
"$p5588181;-$$$;-",
"$$44411,#-#uup#;",
"$$$$#$$$--u8881$",
"-$ppppu$-$p811,-",
"-pwpp884;$u8411;",
"-p8yu81,;p88884;",
"#p888881;u8u814$",
"s$144,4;$$,411$s",
"ss$;;-;#;#$;;-ss"
};
