/* XPM */
static char *key1741780432[] = {
/* columns rows colors chars-per-pixel */
"16 17 23 1 ",
"  c #24121A",
". c #25121A",
"X c #24131A",
"o c #25131A",
"O c #24121B",
"+ c #25121B",
"@ c #24131B",
"# c #25131B",
"$ c #C09244",
"% c #C19244",
"& c #C09344",
"* c #C19344",
"= c #C09245",
"- c #C19245",
"; c #C19345",
": c #FED468",
"> c #FED568",
", c #FFD469",
"< c #FED569",
"1 c #FFD569",
"2 c #FFF0CD",
"3 c #FFF1CD",
"4 c None",
/* pixels */
"4444444444444444",
"4444444444444444",
"4444444444444444",
"4444444444444444",
"4444444444##4444",
"444444444X2$#444",
"444######&##$X44",
"444#$$$$$&4#$#44",
"444X22:##24#&#44",
"444#2#:4#,4X:#44",
"444#,4#44#,,#444",
"4444#44444#X4444",
"4444444444444444",
"4444444444444444",
"4444444444444444",
"4444444444444444",
"4444444444444444"
};
