/* XPM */
static char *jugador1741780412[] = {
/* columns rows colors chars-per-pixel */
"16 17 39 1 ",
"  c #24121A",
". c #25121A",
"X c #24131A",
"o c #25131A",
"O c #24121B",
"+ c #25121B",
"@ c #24131B",
"# c #25131B",
"$ c gray21",
"% c #373636",
"& c #363736",
"* c #373736",
"= c #363637",
"- c #373637",
"; c #363737",
": c #373737",
"> c #885A44",
", c #895A44",
"< c #895B44",
"1 c #885B45",
"2 c #BF704C",
"3 c #BE714C",
"4 c #BF714C",
"5 c #90909E",
"6 c #91909E",
"7 c #90919E",
"8 c #91919E",
"9 c #90909F",
"0 c #91909F",
"q c #90919F",
"w c #91919F",
"e c #ACC0CE",
"r c #ADC0CE",
"t c #ACC1CE",
"y c #ADC1CE",
"u c #ACC0CF",
"i c #ADC0CF",
"p c #ACC1CF",
"a c None",
/* pixels */
"aaaaaaaaaaaaaaaa",
"aaaa......aaaaaa",
"aaa.pq6qqw@aaaaa",
"aa.pq....@@aaaaa",
"aa@qq.r.i@y@aaaa",
"aa.qp.p.i.y.aaaa",
"aa.qpprpipp.aaaa",
"aa@.qq6..6@aaa@@",
"a@.&.959q.#.a.q.",
".6r@&&Xu##p.#qp.",
"X9i.&.99p&p.qp.a",
"O,@@&;Or.*.<..aa",
"O#X1,2 u.4a.#aaa",
"aa.&--.X;;.aaaaa",
"a@;;&;.4@&*Xaaaa",
"a.;&;;@,@;*#aaaa",
"aaaaaaaaaaaaaaaa"
};
