/* XPM */
static char *_3154d044dd54a2be9861db689a7d428Q9ROCST0LQoSQ2xh[] = {
/* columns rows colors chars-per-pixel */
"16 17 32 1 ",
"  c None",
". c #181424",
"X c #191424",
"o c #181524",
"O c #191524",
"+ c #181425",
"@ c #191425",
"# c #181525",
"$ c #191525",
"% c #3A4466",
"& c #3B4466",
"* c #3A4566",
"= c #3B4566",
"- c #3A4467",
"; c #3B4467",
": c #3A4567",
"> c #3B4567",
", c #5A6888",
"< c #5B6888",
"1 c #5A6988",
"2 c #5B6988",
"3 c #5A6889",
"4 c #5B6889",
"5 c #5A6989",
"6 c #5B6989",
"7 c #8A9AB4",
"8 c #8B9AB4",
"9 c #8A9BB4",
"0 c #8B9BB4",
"q c #8B9AB5",
"w c #8A9BB5",
"e c #8B9BB5",
/* pixels */
"                ",
"ooooo           ",
"o669o           ",
"o669oooo        ",
"o669-99o        ",
"o669-69oooo     ",
"o669-69-99oo    ",
"o669-69-69-o    ",
"o669-69-69-o    ",
"o669-69-69-o    ",
"o669-69-69-o    ",
"o----69-69-o    ",
"o----69-69-o    ",
"o-------69-o    ",
"o-------69-o    ",
"o----------o    ",
"oooooooooooo    "
};
